<svg width="2000" height="1700" viewBox="0 0 2000 1700" fill="none" xmlns="http://www.w3.org/2000/svg">
<path d="M667.035 298.978C667.035 298.978 639.77 343.012 639.77 380.086C639.77 417.16 646.586 410.214 646.586 410.214C646.586 410.214 690.21 346.488 810.169 340.694C930.128 334.9 1171.41 327.948 1238.2 344.17C1304.99 360.393 1354.07 410.214 1354.07 410.214C1354.07 410.214 1343.16 307.09 1325.44 295.502C1307.72 283.914 1291.36 257.262 1095.07 249.151C898.773 241.039 752.912 261.897 752.912 261.897C752.912 261.897 698.382 275.803 667.035 298.978Z" fill="#1F3B45"/>
<path d="M721.312 1577.46C744.553 1577.46 763.394 1570.25 763.394 1561.36C763.394 1552.47 744.553 1545.26 721.312 1545.26C698.071 1545.26 679.23 1552.47 679.23 1561.36C679.23 1570.25 698.071 1577.46 721.312 1577.46Z" fill="#FF2929"/>
<path d="M1277.64 1577.46C1300.88 1577.46 1319.72 1570.25 1319.72 1561.36C1319.72 1552.47 1300.88 1545.26 1277.64 1545.26C1254.4 1545.26 1235.56 1552.47 1235.56 1561.36C1235.56 1570.25 1254.4 1577.46 1277.64 1577.46Z" fill="#FF2929"/>
<path d="M1396.99 418.921H1369.75C1369.52 406.05 1368.62 392.977 1367.03 380.141C1362.37 342.602 1355.75 300.414 1327.51 270.161C1280.67 220.001 1188.95 209.711 1118.49 203.556C1111.93 202.987 1105.03 204.368 1098.77 201.807C1078.74 167.245 1070.07 118.299 1017.36 110.07C1000.93 107.502 983.362 108.37 967.656 113.511C927.428 126.674 919.566 172.817 901.338 201.863C804.448 208.635 680.807 218.19 646.236 310.33C633.656 343.851 632.301 383.943 628.914 418.921H601.673C601.305 418.921 601.322 414.939 600.163 412.697C589.583 392.277 549.093 390.348 535.175 408.125C529.518 415.341 528.701 431.647 533.787 439.016C545.705 456.266 584.236 456.918 597.599 440.362C599.697 437.76 599.918 433.986 600.326 433.986H627.558L623.403 494.714C623.322 715.047 623.771 935.922 623.403 1155.91C623.363 1184.83 623.509 1213.75 623.55 1242.67C599.02 1247.85 578.693 1263.65 575.975 1285.79C570.293 1331.99 579.901 1385.74 575.763 1432.75C578.514 1455.26 592.024 1473.45 612.685 1487.03C616.505 1489.53 627.958 1494.25 629.534 1497.02C632.195 1501.71 634.203 1513.77 636.693 1519.88C660.073 1576.86 699.044 1588.88 765.73 1590.82C823.028 1592.47 880.742 1589.47 938.064 1590.76L1069.42 1590.71C1132.07 1586.81 1199.37 1593.43 1262.91 1589.66C1316.41 1586.47 1348.27 1557.2 1363.62 1515.49C1365.12 1511.43 1367.8 1497.6 1369.1 1495.83C1369.74 1494.94 1386.08 1486.6 1389.46 1484.2C1407.97 1471.05 1421.21 1452.45 1422.93 1431.6C1418.7 1385.13 1428.53 1331.59 1422.49 1285.96C1419.35 1262.25 1400.57 1249.29 1375.15 1242.62L1375.27 493.555L1371.12 433.986H1398.35C1398.8 433.986 1400.2 438.898 1401.85 440.855C1415.97 457.591 1458.11 456.301 1466.85 436.06C1485.06 393.852 1406.72 379.849 1396.99 418.921ZM706.105 284.816C733.82 270.286 792.628 265.29 825.713 262.619C911.77 255.618 1002.43 256.429 1088.55 259.115C1140.66 260.752 1235.88 262.862 1282.15 280.937C1332.74 300.692 1345.77 347.605 1346.59 391.125L1327.56 373.181C1267.44 332.555 1185.48 329.515 1111.71 327.434C1019.58 324.839 910.121 321.827 819.06 331.07C759.901 337.072 687.632 349.693 651.379 393.442C652.669 353.503 662.799 307.513 706.105 284.816ZM937.885 178.521C952.228 151.786 956.628 125.647 1000.09 127.07C1053 128.818 1052.51 170.583 1074.24 201.224H924.432C923.232 200.475 936.677 180.797 937.885 178.521ZM838.154 218.773C909.86 210.231 983.624 210.738 1055.8 212.861C1137.29 215.262 1254.89 218.447 1311.9 275.324C1313.27 276.704 1321.82 285.891 1320.72 286.925C1297.19 267.587 1269.29 260.946 1237.91 256.02C1148.62 242.011 1054.98 243.093 964.668 244.12C896.187 244.911 756.979 242.989 699.322 272.09L679.297 284.018C712.742 239.173 779.909 225.711 838.154 218.773ZM949.689 341.395C1022.95 340.222 1102.84 338.466 1175.69 344.822C1267.85 352.864 1353.57 374.159 1358.85 465.841C1359.11 470.255 1358.73 474.723 1358.85 479.129L1346.84 456.363C1304.76 398.029 1215.04 402.102 1144.31 400.45C1051.15 398.272 957.068 398.764 863.893 400.45C801.852 401.568 731.648 396.62 679.444 430.044C660.522 442.166 646.946 459.499 641.15 479.129C638.783 479.407 639.869 476.499 639.82 475.098C633.42 338.043 837.281 343.192 949.689 341.395ZM737.869 1358.02V1169.85C737.869 1169.14 738.962 1168.08 737.869 1166.96H1260.81V1358.02H737.869ZM1260.81 1371.91V1473.81C1246.07 1474.57 1231.26 1474.45 1216.49 1474.92C1101.18 1478.64 984.783 1477.4 869.33 1476.08C825.411 1475.57 781.615 1476.99 737.869 1473.81V1373.07L1260.81 1371.91ZM646.62 1150.74V952.735H1353.42V1150.74H646.62ZM646.22 1340.41C643.036 1333.01 642.832 1314.23 642.473 1305.38C640.685 1259.26 645.175 1213.07 643.893 1166.96H718.799V1358.02C697.379 1354.43 655.877 1362.75 646.22 1340.41ZM718.799 1371.91V1471.49C689.697 1466.06 661.656 1453.85 648.375 1430.05C647.134 1427.82 642.546 1418.13 642.546 1416.49V1361.48C648.073 1363.57 652.114 1366.76 658.146 1368.49C663.265 1369.94 674.954 1371.91 679.991 1371.91H718.799ZM1355.97 1330.66C1355.07 1343.01 1344.57 1351.54 1330.86 1354.46C1326.99 1355.29 1316.73 1356.86 1313.23 1356.86H1280.56C1280.14 1356.86 1279.51 1358.32 1278.51 1358.02V1166.96H1354.77C1357.59 1221.39 1355.64 1276.12 1355.97 1330.66ZM1353.42 935.367H646.62V747.785H1353.42V935.367ZM1164.12 730.417C1164.12 730.417 865.379 730.59 835.917 730.417H646.62L646.546 531.767C650.995 446.219 701.705 420.719 795.738 416.597C915.819 411.344 1040.41 411.879 1160.65 415.508C1252.49 418.276 1341.52 420.58 1352.05 517.945V730.417H1164.12ZM1278.51 1371.91C1305 1371.48 1333.76 1374.66 1356.12 1360.33C1355.13 1366.46 1357.28 1372.34 1357.57 1378.23C1358.28 1392.58 1359.62 1415.16 1353.22 1427.9C1340.21 1453.85 1309.36 1466.07 1278.51 1471.49V1371.91ZM680.669 1557.19C683.191 1557.2 685.452 1556.11 688.007 1556.14C700.024 1556.23 728.718 1559.83 740.636 1562.35C748.775 1564.07 758.285 1568.47 745.42 1572.3C729.542 1577.02 707.248 1573.91 692.489 1567.4C690.318 1566.44 679.052 1561.06 680.244 1557.82C680.318 1557.63 680.432 1557.45 680.595 1557.28C680.611 1557.25 680.644 1557.22 680.669 1557.19ZM1319.26 1558.98C1306.61 1570.73 1282.46 1575.86 1264.24 1574.53C1254.24 1573.8 1236.91 1568.3 1254.74 1563.03C1264.91 1560.02 1298.33 1556.47 1309.6 1556.3C1313.12 1556.24 1316.6 1556.43 1319.17 1558.77C1319.24 1558.82 1319.29 1558.86 1319.34 1558.91C1319.31 1558.93 1319.29 1558.96 1319.26 1558.98ZM1368.4 1461.65C1359.64 1527.65 1285.45 1550.03 1216.61 1546.82C1071.05 1543.85 924.824 1550.56 779.346 1546.8C693.632 1544.61 638.114 1527.72 628.922 1446.6L631.624 1433.29C642.456 1459.43 673.175 1475.9 703.534 1482.75C739.967 1490.97 777.575 1489.21 814.856 1489.98C926.203 1492.25 1038.42 1491.61 1149.76 1489.98C1213.09 1489.05 1312.25 1497.66 1356.1 1451.2L1368.4 1434.44C1367.57 1443.13 1369.52 1453.15 1368.4 1461.65Z" fill="black"/>
<path d="M1320.72 286.925C1297.19 267.587 1269.28 260.947 1237.9 256.02C1148.61 242.011 1054.98 243.086 964.669 244.12C896.187 244.911 756.979 242.982 699.314 272.09L679.289 284.011C712.742 239.173 779.901 225.704 838.155 218.766C909.861 210.224 983.616 210.737 1055.8 212.854C1137.29 215.255 1254.89 218.44 1311.89 275.317C1313.27 276.698 1321.82 285.885 1320.71 286.918L1320.72 286.925Z" fill="#606060"/>
<path d="M1074.24 201.224H924.431C923.231 200.468 936.676 180.797 937.884 178.514C952.227 151.786 956.627 125.64 1000.09 127.07C1053.01 128.818 1052.51 170.576 1074.24 201.224Z" fill="black"/>
<path d="M1358.85 479.129L1346.84 456.363C1304.76 398.035 1215.05 402.102 1144.32 400.457C1051.16 398.278 957.068 398.764 863.901 400.457C801.86 401.567 731.656 396.62 679.452 430.051C660.53 442.173 646.954 459.506 641.158 479.136C638.783 479.413 639.877 476.506 639.82 475.104C633.428 338.057 837.289 343.198 949.697 341.401C1022.95 340.229 1102.85 338.473 1175.7 344.829C1267.86 352.871 1353.57 374.166 1358.86 465.841C1359.12 470.254 1358.73 474.73 1358.86 479.129H1358.85Z" fill="#606060"/>
<path d="M1368.4 1461.65C1359.64 1527.66 1285.45 1550.03 1216.61 1546.82C1071.05 1543.85 924.824 1550.56 779.346 1546.81C693.632 1544.61 638.114 1527.73 628.922 1446.6L631.624 1433.29C642.457 1459.43 673.175 1475.9 703.534 1482.75C739.967 1490.97 777.575 1489.21 814.856 1489.98C926.203 1492.25 1038.42 1491.61 1149.76 1489.98C1213.09 1489.05 1312.25 1497.67 1356.11 1451.2L1368.4 1434.44C1367.57 1443.13 1369.52 1453.15 1368.4 1461.65Z" fill="#606060"/>
<path d="M1353.21 1427.9C1340.21 1453.85 1309.36 1466.08 1278.51 1471.49V1371.92C1305 1371.48 1333.76 1374.66 1356.12 1360.33C1355.12 1366.46 1357.28 1372.35 1357.56 1378.23C1358.27 1392.59 1359.62 1415.16 1353.21 1427.9Z" fill="#606060"/>
<path d="M1260.81 1371.92V1473.81C1246.07 1474.57 1231.25 1474.45 1216.49 1474.92C1101.17 1478.64 984.773 1477.4 869.328 1476.08C825.41 1475.57 781.606 1476.98 737.867 1473.81V1373.07L1260.81 1371.92Z" fill="#606060"/>
<path d="M718.8 1371.92V1471.49C689.698 1466.06 661.657 1453.86 648.376 1430.05C647.135 1427.82 642.539 1418.13 642.539 1416.49V1361.49C648.074 1363.57 652.106 1366.76 658.147 1368.49C663.257 1369.94 674.955 1371.92 679.984 1371.92H718.792H718.8Z" fill="#606060"/>
<path d="M1355.96 1330.66C1355.07 1343.01 1344.57 1351.54 1330.85 1354.46C1326.99 1355.3 1316.72 1356.86 1313.23 1356.86H1280.55C1280.13 1356.86 1279.5 1358.32 1278.51 1358.02V1166.96H1354.76C1357.59 1221.39 1355.64 1276.12 1355.96 1330.67V1330.66Z" fill="#606060"/>
<path d="M1260.81 1166.96V1358.02H737.867V1169.85C737.867 1169.14 738.961 1168.08 737.867 1166.96H1260.81Z" fill="#606060"/>
<path d="M718.8 1166.96V1358.02C697.388 1354.43 655.877 1362.75 646.228 1340.41C643.036 1333.01 642.832 1314.24 642.481 1305.38C640.694 1259.26 645.183 1213.07 643.902 1166.96H718.808H718.8Z" fill="#606060"/>
<path d="M1352.06 730.417H1164.11C1164.11 730.417 902.179 731.749 835.918 730.417H646.612L646.547 531.774C650.988 446.225 701.698 420.725 795.73 416.597C915.812 411.351 1040.41 411.878 1160.65 415.507C1252.49 418.276 1341.52 420.58 1352.04 517.945L1352.06 730.417Z" fill="#606060"/>
<path d="M1353.42 952.735H646.621V1150.75H1353.42V952.735Z" fill="#606060"/>
<path d="M1353.42 747.784H646.621V935.367H1353.42V747.784Z" fill="#606060"/>
<path d="M893.719 714.48C875.159 714.48 858.628 711.29 844.128 704.91C829.71 698.447 818.317 689.581 809.948 678.312C801.662 666.96 797.395 653.868 797.146 639.036H851.337C851.668 645.251 853.698 650.719 857.427 655.442C861.238 660.083 866.293 663.687 872.59 666.256C878.888 668.824 885.972 670.109 893.844 670.109C902.047 670.109 909.297 668.659 915.594 665.759C921.892 662.858 926.822 658.84 930.385 653.702C933.948 648.565 935.729 642.641 935.729 635.929C935.729 629.134 933.824 623.127 930.012 617.907C926.283 612.604 920.897 608.461 913.854 605.478C906.894 602.495 898.608 601.004 888.996 601.004H865.257V561.479H888.996C897.117 561.479 904.284 560.071 910.499 557.254C916.796 554.436 921.685 550.542 925.165 545.57C928.645 540.516 930.385 534.633 930.385 527.921C930.385 521.541 928.852 515.948 925.786 511.142C922.803 506.253 918.577 502.442 913.109 499.707C907.723 496.973 901.425 495.606 894.217 495.606C886.925 495.606 880.255 496.932 874.206 499.583C868.157 502.152 863.31 505.839 859.664 510.645C856.018 515.451 854.071 521.085 853.822 527.548H802.242C802.491 512.882 806.675 499.956 814.795 488.77C822.916 477.584 833.853 468.842 847.608 462.545C861.446 456.165 877.065 452.974 894.465 452.974C912.031 452.974 927.402 456.165 940.577 462.545C953.751 468.925 963.985 477.542 971.276 488.397C978.651 499.169 982.297 511.266 982.214 524.69C982.297 538.942 977.864 550.832 968.915 560.361C960.049 569.89 948.49 575.938 934.238 578.507V580.496C952.964 582.899 967.216 589.403 976.994 600.009C986.854 610.532 991.743 623.707 991.66 639.533C991.743 654.034 987.558 666.919 979.107 678.188C970.738 689.456 959.179 698.322 944.43 704.786C929.681 711.249 912.777 714.48 893.719 714.48ZM1169.92 529.661C1168.93 519.635 1164.66 511.846 1157.12 506.295C1149.58 500.743 1139.35 497.967 1126.42 497.967C1117.64 497.967 1110.22 499.21 1104.17 501.696C1098.12 504.099 1093.48 507.455 1090.25 511.763C1087.1 516.072 1085.53 520.961 1085.53 526.43C1085.36 530.987 1086.32 534.964 1088.39 538.362C1090.54 541.759 1093.48 544.7 1097.21 547.186C1100.94 549.589 1105.25 551.702 1110.14 553.525C1115.03 555.265 1120.25 556.756 1125.8 557.999L1148.67 563.468C1159.77 565.954 1169.96 569.268 1179.24 573.411C1188.52 577.554 1196.56 582.65 1203.36 588.699C1210.15 594.748 1215.41 601.874 1219.14 610.077C1222.95 618.28 1224.9 627.684 1224.98 638.29C1224.9 653.868 1220.92 667.374 1213.05 678.809C1205.26 690.161 1193.99 698.985 1179.24 705.283C1164.58 711.497 1146.89 714.604 1126.17 714.604C1105.62 714.604 1087.73 711.456 1072.48 705.158C1057.32 698.861 1045.47 689.539 1036.93 677.193C1028.48 664.764 1024.05 649.394 1023.63 631.082H1075.71C1076.29 639.616 1078.74 646.742 1083.04 652.46C1087.44 658.094 1093.28 662.361 1100.57 665.261C1107.94 668.079 1116.27 669.487 1125.55 669.487C1134.67 669.487 1142.58 668.161 1149.29 665.51C1156.08 662.858 1161.35 659.171 1165.08 654.448C1168.8 649.725 1170.67 644.298 1170.67 638.166C1170.67 632.449 1168.97 627.643 1165.57 623.749C1162.26 619.854 1157.37 616.54 1150.91 613.805C1144.53 611.071 1136.7 608.585 1127.42 606.348L1099.7 599.388C1078.24 594.168 1061.29 586.006 1048.86 574.903C1036.44 563.799 1030.26 548.843 1030.34 530.034C1030.26 514.622 1034.36 501.157 1042.65 489.64C1051.02 478.122 1062.49 469.132 1077.08 462.669C1091.66 456.206 1108.23 452.974 1126.79 452.974C1145.69 452.974 1162.18 456.206 1176.26 462.669C1190.43 469.132 1201.45 478.122 1209.32 489.64C1217.19 501.157 1221.25 514.498 1221.5 529.661H1169.92Z" fill="#1D1D1D"/>
</svg>
